<svg width="24" height="24" viewBox="0 0 24 24" fill="none" xmlns="http://www.w3.org/2000/svg">
<path d="M13.3523 13.3681L12.4673 15.7581C12.4432 15.8243 12.4432 15.8969 12.4673 15.9631L13.9903 20.0751L15.7503 19.0741L13.6373 13.3681C13.6265 13.339 13.607 13.3139 13.5816 13.2962C13.5561 13.2785 13.5258 13.269 13.4948 13.269C13.4637 13.269 13.4335 13.2785 13.408 13.2962C13.3825 13.3139 13.3631 13.339 13.3523 13.3681ZM15.1263 9.34911C15.1155 9.32002 15.096 9.29493 15.0706 9.27721C15.0451 9.2595 15.0148 9.25 14.9838 9.25C14.9527 9.25 14.9225 9.2595 14.897 9.27721C14.8715 9.29493 14.8521 9.32002 14.8413 9.34911L13.9563 11.7391C13.9322 11.8053 13.9322 11.8779 13.9563 11.9441L16.4503 18.6761L18.2113 17.6751L15.1263 9.34911Z" fill="#808080"/>
<path d="M11.9984 4.115C12.0423 4.11664 12.0853 4.12791 12.1244 4.148L18.8394 7.966C18.8772 7.9876 18.9087 8.01871 18.9308 8.05625C18.9529 8.09379 18.9649 8.13644 18.9654 8.18V15.815C18.9654 15.904 18.9174 15.985 18.8394 16.029L12.1244 19.848C12.0859 19.8696 12.0425 19.8806 11.9984 19.88C11.9549 19.8785 11.9122 19.8676 11.8734 19.848L5.15839 16.033C5.12042 16.0113 5.0888 15.98 5.06669 15.9423C5.04458 15.9046 5.03276 15.8617 5.03239 15.818V8.182C5.03239 8.093 5.08039 8.012 5.15839 7.967L11.8734 4.149C11.9115 4.1273 11.9545 4.11561 11.9984 4.115ZM11.9984 3C11.7604 3 11.5204 3.06 11.3064 3.183L4.59339 7C4.38361 7.11806 4.20891 7.28969 4.08716 7.49735C3.96541 7.70502 3.90096 7.94128 3.90039 8.182V15.817C3.90039 16.304 4.16439 16.755 4.59339 16.998L11.3074 20.817C11.5189 20.9363 11.7576 20.9991 12.0004 20.9991C12.2432 20.9991 12.4819 20.9363 12.6934 20.817L19.4074 16.999C19.6172 16.8809 19.7919 16.7093 19.9136 16.5016C20.0354 16.294 20.0998 16.0577 20.1004 15.817V8.182C20.0998 7.94128 20.0354 7.70502 19.9136 7.49735C19.7919 7.28969 19.6172 7.11806 19.4074 7L12.6914 3.183C12.4802 3.0629 12.2414 2.99983 11.9984 3Z" fill="#808080"/>
<path d="M7.55888 18.6848L8.17587 17.0188L9.41988 18.0368L8.25688 19.0828L7.55888 18.6848ZM11.4329 7.63478H9.73088C9.66883 7.63412 9.6081 7.6527 9.55706 7.68798C9.50602 7.72326 9.46717 7.7735 9.44588 7.83178L5.79688 17.6838L7.55888 18.6848L11.5759 7.83578C11.5839 7.81303 11.5864 7.78868 11.583 7.76478C11.5796 7.74089 11.5705 7.71816 11.5565 7.69853C11.5424 7.6789 11.5239 7.66295 11.5024 7.65202C11.4808 7.6411 11.457 7.63453 11.4329 7.63478Z" fill="#808080"/>
<path d="M14.4118 7.63477H12.7088C12.6469 7.63431 12.5864 7.653 12.5356 7.68826C12.4847 7.72353 12.4461 7.77366 12.4248 7.83177L8.25781 19.0818L10.0188 20.0818L14.5538 7.83577C14.5618 7.8131 14.5643 7.78884 14.5609 7.76502C14.5576 7.74121 14.5486 7.71854 14.5347 7.69893C14.5208 7.67933 14.5023 7.66335 14.481 7.65236C14.4596 7.64137 14.4359 7.63468 14.4118 7.63477Z" fill="#808080"/>
</svg>
